# xmcd
#
# Track frame offsets: 
#        150
#        29571
#        51540
#        77672
#        102295
#        122741
#        130524
#        165074
#        195625
#        214490
#
# Disc length: 3162 seconds
#
# Revision: 1
# Processed by: cddbd v1.5.2PL0 Copyright (c) Steve Scherf et al.
# Submitted via: ExactAudioCopy v0.99pb5
#
DISCID=850c580a
DTITLE=Hubert Dupont - Spider's dance
DYEAR=2006
DGENRE=Jazz
TTITLE0=Spider
TTITLE1=Mais presque
TTITLE2=Possib
TTITLE3=Orientable
TTITLE4=Irid
TTITLE5=1010
TTITLE6=Douj
TTITLE7=Moundélé
TTITLE8=Ladies on board
TTITLE9=D'hélices
EXTD=YEAR: 2006
EXTT0=
EXTT1=
EXTT2=
EXTT3=
EXTT4=
EXTT5=
EXTT6=
EXTT7=
EXTT8=
EXTT9=
PLAYORDER=
